<?xml version="1.0" encoding="utf-8"?>
<!-- Generator: Adobe Illustrator 22.0.1, SVG Export Plug-In . SVG Version: 6.00 Build 0)  -->
<svg version="1.1" id="Layer_1" xmlns="http://www.w3.org/2000/svg" xmlns:xlink="http://www.w3.org/1999/xlink" x="0px" y="0px"
	 width="247.2px" height="64.4px" viewBox="0 0 247.2 64.4" style="enable-background:new 0 0 247.2 64.4;" xml:space="preserve">
<style type="text/css">
	.st0{enable-background:new    ;}
	.st1{fill:#183807;}
	.st2{fill:#3D4D1E;}
</style>
<g id="XMLID_2_">
	<g class="st0">
		<path class="st1" d="M38.6,10.3c-1.1,1.4-2.2,2.7-3.4,3.9c-1.2,1.3-2.4,2.2-3.4,2.9c-0.1,0-1.7-0.6-4.6-1.6
			c-2.9-1-4.9-1.5-6.1-1.5c-1,0-2,0.2-2.9,0.6c-2.5,1.6-4.5,3.5-6,5.6s-2.3,4.6-2.3,7.3c0.3,1.8,0.8,3.4,1.5,4.8
			c0.7,1.4,1.7,2.5,3.1,3.1c1.8,1,3.7,1.5,5.7,1.5c2.5,0,5.4-0.8,8.6-2.5c3.2-1.6,6.3-3.2,9.2-4.7l-4.5,9.9
			c-1.5,0.3-3.3,0.5-5.5,0.7s-5.2,0.3-9,0.3h-4.6c-0.5,0-1,0-1.5,0s-1,0-1.6,0c-0.7,0-1.4,0-2.1-0.1c-0.7-0.1-1.2-0.3-1.7-0.6
			C5.2,38.7,3.3,37,2,34.8s-2-4.7-2-7.3c0-2.7,0.6-5.1,1.8-7.3c1.2-2.1,3-4.2,5.3-6.1c2.9-1.4,6.6-2.5,10.9-3.3
			c4.4-0.8,10.5-1.2,18.5-1.2c0.1,0.2,0.5,0.2,1.2,0s1.1-0.3,1.2-0.3c0.1,0,0.2,0.1,0.1,0.2C39.1,9.6,38.9,9.9,38.6,10.3z"/>
		<path class="st1" d="M79.5,10.3c-1.1,1.4-2.2,2.7-3.4,3.9c-1.2,1.3-2.4,2.2-3.4,2.9c-0.1,0-1.7-0.6-4.6-1.6S63.2,14,62,14
			c-1,0-2,0.2-2.9,0.6c-2.5,1.6-4.5,3.5-6,5.6s-2.3,4.6-2.3,7.3c0.3,1.8,0.8,3.4,1.5,4.8c0.7,1.4,1.7,2.5,3.1,3.1
			c1.8,1,3.7,1.5,5.7,1.5c2.5,0,5.4-0.8,8.6-2.5c3.2-1.6,6.3-3.2,9.2-4.7l-4.5,9.9c-1.5,0.3-3.3,0.5-5.5,0.7s-5.2,0.3-9,0.3h-4.6
			c-0.5,0-1,0-1.5,0s-1,0-1.6,0c-0.7,0-1.4,0-2.1-0.1c-0.7-0.1-1.2-0.3-1.7-0.6c-2.3-1.2-4.2-2.9-5.5-5.1s-2-4.7-2-7.3
			c0-2.7,0.6-5.1,1.8-7.3c1.2-2.1,3-4.2,5.3-6.1c2.9-1.4,6.6-2.5,10.9-3.3c4.4-0.8,10.5-1.2,18.5-1.2c0.1,0.2,0.5,0.2,1.2,0
			s1.1-0.3,1.2-0.3s0.2,0.1,0.1,0.2C80,9.6,79.8,9.9,79.5,10.3z"/>
		<path class="st1" d="M122.3,10.3c-1,3.3-1.7,6.5-2.2,9.6s-0.7,6.1-0.7,9c0,3.2,0.3,6.8,0.9,11c-0.1,0.3-0.2,0.5-0.3,0.5l-10.1-0.2
			c0,0-0.2-0.3-0.3-0.7c-0.2-0.4-0.4-0.6-0.7-0.6c-1.3,0.5-2.6,0.8-4,0.9c-1.4,0.1-3.1,0.2-5.2,0.2c-1.8,0.5-3.5,0.7-5.1,0.7
			c-2,0-3.9-0.3-5.6-1s-3-1.8-4-3.2s-1.7-3-2.2-4.6s-0.7-3.3-0.7-5c0-2.5,0.5-4.8,1.5-7c1.1-2.8,3-5.1,5.8-6.9
			c2.7-1.8,5.7-2.8,8.9-3.1c0.4,0,0.7,0,1,0s0.7,0,1,0c0.8,0,2.1-0.1,3.9-0.2c1.8-0.1,3.1-0.2,4-0.2c1,0,2,0.1,2.9,0.2
			c0.9,0.1,1.8,0.4,2.5,0.7s1.5,0.5,2.3,0.5s1.7-0.2,2.8-0.5c1.1-0.3,2.1-0.6,3.1-0.9c0.4,0,0.6,0.1,0.6,0.3L122.3,10.3z
			 M110.9,19.6c-0.2-1.3-1.3-2.5-3.3-3.8s-3.9-1.9-5.8-1.9c-1.6,0.6-3.1,1.5-4.5,2.7s-2.6,2.7-3.5,4.4s-1.4,3.7-1.4,5.9
			c0,2.1,0.5,3.9,1.6,5.4c0.6,1,1.3,1.8,2.1,2.4c0.9,0.6,1.8,0.9,2.8,0.9c0.5,0,1.2-0.2,2.3-0.6c1.1-0.4,2.5-1.4,4.3-3
			c1.7-1.7,2.9-3.2,3.6-4.7s1.1-2.7,1.5-3.7c0.3-0.9,0.5-1.8,0.5-2.7C111.1,20.3,111,19.8,110.9,19.6z"/>
		<path class="st1" d="M157.2,11.4c-0.9,1.9-1.8,3.8-2.7,5.7l-0.3,0.3c-1.4,0-3.6,0-6.7-0.1c-3.1-0.1-4.7-0.1-5-0.1
			c-0.5,0-0.8,0.2-1,0.6c-0.2,0.4-0.4,0.9-0.6,1.3c-0.5,2.1-0.8,4.1-0.8,6.2c0,2.1,0.3,4,0.8,5.8s1.3,3.2,2.3,4.2s2,1.5,3,1.5
			c0.3,0,0.8-0.1,1.5-0.3s1.4-0.5,2.1-0.8c0.7-0.4,3-1.7,6.8-3.8c-0.3,1.3-0.8,3-1.5,5c-0.5,1.4-0.9,2.4-1,3l-0.6,0.4h-16.1
			c-1-0.2-2-0.6-2.8-1.2s-1.8-1.9-2.9-3.9c-1.1-2-1.6-5-1.6-9c0-2.8,0.4-5.6,1.2-8.2c-0.2-0.6-0.8-0.8-1.7-0.8c-0.8,0-1.6,0-2.4,0
			h-0.3c0.1-1.3,0.2-2.4,0.2-3.2c0.1-0.9,0.2-1.6,0.5-2.4c0.5-0.1,1-0.1,1.6-0.1s1,0,1.3,0h1.1c0.3,0,0.6,0,1-0.1
			c0.4,0,0.7-0.1,0.8-0.1c1.2-2,2.2-3.6,3-4.8s1.7-2.5,2.7-3.8c0.4-0.3,0.6-0.4,0.8-0.4c2.2-0.3,4.8-0.5,7.6-0.7
			c2.9-0.2,5.5-0.3,8.1-0.5c-3.3,3.2-6.7,6.4-10,9.6c0.1,0.2,0.4,0.4,0.8,0.4c1.3,0,3.3,0,6.2-0.1s4.4-0.1,4.5-0.1
			C157.4,10.9,157.4,11.2,157.2,11.4z"/>
		<path class="st1" d="M200.8,10.3c-1,3.3-1.7,6.5-2.2,9.6s-0.7,6.1-0.7,9c0,3.2,0.3,6.8,0.9,11c-0.1,0.3-0.2,0.5-0.3,0.5l-10.1-0.2
			c0,0-0.2-0.3-0.3-0.7c-0.2-0.4-0.4-0.6-0.7-0.6c-1.3,0.5-2.6,0.8-4,0.9c-1.4,0.1-3.1,0.2-5.2,0.2c-1.8,0.5-3.5,0.7-5.1,0.7
			c-2,0-3.9-0.3-5.6-1c-1.7-0.7-3-1.8-4-3.2s-1.7-3-2.2-4.6s-0.7-3.3-0.7-5c0-2.5,0.5-4.8,1.5-7c1.1-2.8,3-5.1,5.8-6.9
			c2.7-1.8,5.7-2.8,8.9-3.1c0.4,0,0.7,0,1,0s0.7,0,1,0c0.8,0,2.1-0.1,3.9-0.2c1.8-0.1,3.1-0.2,4-0.2c1,0,2,0.1,2.9,0.2
			c0.9,0.1,1.8,0.4,2.5,0.7s1.5,0.5,2.3,0.5s1.7-0.2,2.8-0.5s2.1-0.6,3.1-0.9c0.4,0,0.6,0.1,0.6,0.3L200.8,10.3z M189.4,19.6
			c-0.2-1.3-1.3-2.5-3.3-3.8s-3.9-1.9-5.8-1.9c-1.6,0.6-3.1,1.5-4.5,2.7s-2.6,2.7-3.5,4.4s-1.4,3.7-1.4,5.9c0,2.1,0.5,3.9,1.6,5.4
			c0.6,1,1.3,1.8,2.1,2.4c0.9,0.6,1.8,0.9,2.8,0.9c0.5,0,1.2-0.2,2.3-0.6c1.1-0.4,2.5-1.4,4.3-3c1.7-1.7,2.9-3.2,3.6-4.7
			c0.7-1.5,1.1-2.7,1.5-3.7c0.3-0.9,0.5-1.8,0.5-2.7C189.6,20.3,189.5,19.8,189.4,19.6z"/>
		<path class="st1" d="M247.2,33.4c-0.4,0.9-1,1.9-1.6,3c-0.7,1.2-1.3,2.3-1.9,3.3l-0.4,0.6c-1.6-0.2-3.5-0.3-5.7-0.4
			c-2.2-0.1-4.6-0.1-7.2-0.1h-7.7c2.1-1.9,3.8-3.5,5.4-4.9c1.5-1.4,2.8-2.9,3.9-4.4c0.8-1.4,1.6-2.9,2.1-4.4c0.6-1.5,0.9-3,0.9-4.4
			c0-0.8-0.1-1.6-0.4-2.4c-0.3-0.8-0.7-1.5-1.2-2.2s-1.3-1.2-2.1-1.6c-0.9-0.4-1.9-0.7-3-0.8c-2.6,0.4-4.9,1.7-7,3.9s-3.4,4.2-4,5.9
			c-0.6,1.8-1,3.2-1.1,4.3s-0.2,2.1-0.2,3c0,1.2,0,2.7,0.1,4.6c0.1,1.9,0.1,3,0.1,3.3v0.1h-10.9H205c0.7-3.3,1.4-6.3,1.8-8.9
			c0.5-2.6,0.7-5.1,0.7-7.5c0-2.5-0.3-4.7-0.8-6.6c-0.5-1.9-1.4-3.7-2.7-5.4V11c2,0,4-0.1,6-0.3c1.9-0.2,3.8-0.5,5.5-1
			c0.6-0.2,0.9-0.1,1,0.3c0.1,0.7,0.2,1.1,0.2,1.3s0.1,0.5,0.2,0.7c0.1,0.2,0.3,0.4,0.6,0.5c2-0.6,3.8-1.1,5.5-1.4
			c1.7-0.3,3.5-0.5,5.5-0.5c1-0.2,2.2-0.4,3.4-0.6c1.2-0.2,2.4-0.3,3.5-0.3c1.3,0,2.4,0.1,3.4,0.3s2,0.8,3.2,1.6
			c1.2,0.9,2.1,2.1,2.7,3.6c0.6,1.6,0.9,3.3,0.9,5.3c0,0.4,0,0.7,0,1.1c-0.1,0.6-0.2,1.4-0.3,2.5s-0.7,2.6-1.6,4.5
			c-1,1.9-2.2,3.7-3.7,5.4c0,0.6,0.1,0.8,0.4,0.8c1.5-0.4,2.8-0.7,3.7-0.9C245,34.1,246.1,33.8,247.2,33.4z"/>
	</g>
	<g class="st0">
		<path class="st2" d="M60.7,48.4c-0.1,0.3-0.2,0.7-0.4,1.2c-0.1,0.6-0.2,0.9-0.3,1c-0.1,0-0.2,0.1-0.2,0.1c-0.6,0-1.7,0-3.1,0
			c-1.4,0-2.2-0.1-2.3-0.1c-0.1,0.1-0.2,0.2-0.3,0.3c0,0.2-0.1,0.5-0.1,0.8s0,0.6,0,0.9c0,0.3,0,0.6,0,1.1s0,0.9,0,1.1
			c0,0.1,0.1,0.1,0.2,0.2c0.4,0.1,0.8,0.1,1.1,0.1s0.8,0,1.2,0c0.7,0,1.3,0,1.9-0.1s1.2-0.1,2-0.2c0,0.4,0,0.8-0.1,1.4
			c-0.1,0.6-0.1,1-0.1,1.3c-0.1,0-0.2,0.1-0.3,0.1c-0.5,0-1.2,0-2.3-0.1s-1.8-0.1-2.2-0.1s-0.8,0-1.3,0.1c-0.2,0.1-0.2,0.2-0.2,0.2
			c0,0.1,0,0.3,0,0.4c0,0.2,0,0.3,0,0.4c0,0.3,0,0.7,0.1,1.3c0,0.6,0.1,1,0.1,1.3s0.1,0.5,0.3,0.5c0.7,0.1,1.5,0.2,2.4,0.2
			c0.6,0,1.2,0,1.8-0.1s1.1-0.2,1.6-0.4c0.1,0,0.2,0.1,0.2,0.3v0.3c0,0.2,0.1,0.4,0.1,0.6s0,0.4,0,0.6v0.4c0,0.2,0,0.3,0,0.4
			c0,0.1,0,0.2,0,0.3c-0.6,0-1.5,0-2.8-0.1S55.5,64,54.8,64h-4.5h-0.1c0.2-1.2,0.3-2.4,0.4-3.7c0.1-1.3,0.1-2.7,0.1-4.3v-0.5V55
			v-0.4v-0.4v-0.3c0-0.3,0-0.6,0-1s0-0.6,0-1v-0.3c0-0.6-0.1-1.3-0.2-2c-0.1-0.7-0.2-1.2-0.3-1.7l0.1-0.1c0.7,0,1.8,0,3.4,0.1
			c1.6,0.1,2.7,0.1,3.2,0.1c0.8,0,1.5,0,2-0.1s0.9-0.1,1.3-0.2c0.4-0.1,0.6-0.1,0.8-0.2c0.1,0,0.1,0,0.1,0.1
			C60.8,48,60.8,48.2,60.7,48.4z"/>
		<path class="st2" d="M80.7,50.3c0,0.2-0.1,0.3-0.3,0.3c-1,0.4-2,0.9-3.1,1.3c-0.1,0-0.2,0-0.3,0c-0.7-0.8-1.5-1.4-2.4-1.8
			c-0.9-0.4-1.8-0.6-2.8-0.6c-1.2,0.2-2.2,0.7-3.1,1.5s-1.6,1.7-1.9,2.7s-0.5,1.9-0.5,2.8c0,0.9,0.2,1.8,0.5,2.7
			c0.3,0.8,0.8,1.6,1.5,2.2c0.5,0.5,1.1,0.8,1.7,1.1s1.3,0.4,1.9,0.4c0.4,0,1.3-0.2,2.7-0.5c1.4-0.4,3.2-1.2,5.3-2.4
			c-0.2,1-0.4,1.8-0.6,2.5s-0.4,1.2-0.5,1.5c-0.1,0-0.2,0.1-0.2,0.1c-0.7,0.1-1.5,0.2-2.2,0.2c-0.8,0-1.6,0-2.4,0h-0.4h-0.3
			c-0.3,0-0.6,0-1,0c-0.3,0-0.6,0-0.9,0h-0.3c-0.2,0-0.4,0-0.7,0c-0.2,0-0.4,0-0.6,0c-1.4,0-2.6-0.2-3.6-0.7
			c-1.1-0.5-1.9-1.3-2.7-2.5c-0.7-1.2-1.1-2.6-1.1-4.4c0-0.9,0.1-1.9,0.4-2.8c0.3-0.9,0.7-1.7,1.2-2.4c1.9-2.3,4.3-3.4,7.3-3.4
			c0.8-0.1,1.4-0.2,1.9-0.2c0.5-0.1,1-0.1,1.5-0.1c0.3,0,0.8,0,1.4,0.1s1.5,0.5,2.7,1.1C80.1,49.7,80.7,50.1,80.7,50.3z"/>
		<path class="st2" d="M100.7,51.5c0.3,0.6,0.5,1.2,0.7,1.8c0.2,0.7,0.2,1.4,0.2,2c0,0.9-0.1,1.8-0.4,2.7s-0.8,1.8-1.5,2.8
			s-1.8,1.8-3.2,2.4c-1.4,0.6-3,0.9-4.7,0.9c-1,0.2-1.9,0.3-2.8,0.3c-1.1,0-2-0.2-2.9-0.5s-1.7-0.8-2.3-1.6
			c-0.6-0.7-1.1-1.6-1.5-2.5c-0.4-1-0.5-2-0.5-3s0.2-2.1,0.6-3.2c0.4-1.1,1.2-2.2,2.5-3.2s2.6-1.7,4.1-1.9c1-0.1,1.7-0.2,2.2-0.3
			s0.9-0.2,1.3-0.3s0.7-0.2,1-0.2s0.6,0,0.9,0c1.3,0,2.6,0.3,3.7,1C99.3,49.5,100.1,50.4,100.7,51.5z M96.8,52.6
			c-0.6-0.9-1.1-1.6-1.8-2s-1.2-0.6-1.9-0.8c-0.6-0.2-1.1-0.2-1.5-0.2c-0.6,0-1.2,0.1-1.8,0.4c-0.6,0.3-1.2,0.7-1.9,1.3
			c-0.7,0.7-1.3,1.5-1.7,2.5c-0.4,0.9-0.6,1.9-0.6,2.9c0,0.9,0.2,1.8,0.6,2.7c0.4,1,1.1,1.8,2.1,2.4s2.1,1,3.3,1
			c2-0.3,3.5-1.1,4.5-2.5s1.5-2.9,1.5-4.4C97.7,54.6,97.4,53.5,96.8,52.6z"/>
		<path class="st2" d="M123.7,61.6l-1,2.3c-0.1,0.1-0.2,0.2-0.2,0.2c-1.4,0-3.2,0-5.5-0.1c-2.2,0-3.5-0.1-3.8-0.1l-0.1-0.1
			c0.1-0.8,0.1-1.6,0.2-2.4c0-0.9,0.1-1.7,0.1-2.6c0-1.4,0-3.1-0.1-5.2s-0.1-3.1-0.1-3.2c0-0.3-0.1-0.6-0.1-0.9s-0.1-0.7-0.3-1.3
			h0.1c0.4,0,0.8,0,1.2,0c0.4,0,0.9,0,1.3,0c0.7,0,1.2,0,1.4,0c0.2,0.1,0.4,0.1,0.6,0.2c-0.2,0.9-0.3,1.9-0.4,3.1
			c-0.1,1.1-0.1,2.3-0.1,3.3c0,0.7,0,1.9,0.1,3.6c0,1.7,0.1,2.5,0.1,2.6c0.1,0.2,0.1,0.4,0.2,0.6c0.1,0.2,0.2,0.3,0.4,0.3
			c1,0,2-0.1,2.9-0.2c0.9-0.1,2-0.3,3.2-0.5C123.7,61.5,123.7,61.5,123.7,61.6z"/>
		<path class="st2" d="M143.9,51.5c0.3,0.6,0.5,1.2,0.7,1.8c0.2,0.7,0.2,1.4,0.2,2c0,0.9-0.1,1.8-0.4,2.7c-0.3,0.9-0.8,1.8-1.5,2.8
			s-1.8,1.8-3.2,2.4c-1.4,0.6-3,0.9-4.7,0.9c-1,0.2-1.9,0.3-2.8,0.3c-1.1,0-2-0.2-2.9-0.5s-1.7-0.8-2.3-1.6
			c-0.6-0.7-1.1-1.6-1.5-2.5c-0.4-1-0.5-2-0.5-3s0.2-2.1,0.6-3.2c0.4-1.1,1.2-2.2,2.5-3.2c1.3-1,2.6-1.7,4.1-1.9
			c1-0.1,1.7-0.2,2.2-0.3s0.9-0.2,1.3-0.3c0.4-0.1,0.7-0.2,1-0.2s0.6,0,0.9,0c1.3,0,2.6,0.3,3.7,1C142.5,49.5,143.3,50.4,143.9,51.5
			z M140,52.6c-0.6-0.9-1.1-1.6-1.8-2s-1.2-0.6-1.9-0.8c-0.6-0.2-1.1-0.2-1.5-0.2c-0.6,0-1.2,0.1-1.8,0.4c-0.6,0.3-1.2,0.7-1.9,1.3
			c-0.7,0.7-1.3,1.5-1.7,2.5c-0.4,0.9-0.6,1.9-0.6,2.9c0,0.9,0.2,1.8,0.6,2.7c0.4,1,1.1,1.8,2.1,2.4s2.1,1,3.3,1
			c2-0.3,3.5-1.1,4.5-2.5s1.5-2.9,1.5-4.4C140.9,54.6,140.6,53.5,140,52.6z"/>
		<path class="st2" d="M162.7,51.2c0.7,1.3,1,2.7,1,4.3c0,1.2-0.2,2.3-0.6,3.5c-0.4,1.1-1,2.1-1.8,2.9c-0.7,0.8-1.5,1.4-2.5,1.7
			c-0.9,0.4-1.9,0.6-2.8,0.7c-1,0.1-2.2,0.1-3.8,0.1c-0.7,0-1.7,0-3-0.1s-2.2-0.1-2.6-0.1c0.1-0.3,0.2-0.6,0.5-1.1
			c0.2-0.5,0.4-1,0.4-1.5c0.1-0.5,0.1-1.2,0.2-2.2s0.1-2.1,0.1-3.5v-0.5V55v-0.6v-0.3v-0.3c0-0.3,0-0.6,0-0.9c0-0.3,0-0.6,0-0.9
			v-0.2c0-1.2-0.2-2.3-0.7-3.3c0-0.2,0-0.3,0.1-0.3c0.9,0,1.9,0,2.8,0c0.9,0,1.9,0,2.8,0.1h0.5c1.2,0,2.3-0.1,3.3-0.2h1
			c1.3,0,2.3,0.2,3.1,0.5C161.3,49,162,49.9,162.7,51.2z M159.5,53.2c-0.4-1.2-1-2-1.7-2.4c-0.7-0.5-1.4-0.8-2-0.9
			c-0.6-0.1-1-0.2-1.2-0.2c-0.4,0-0.8,0.1-1.3,0.4s-0.9,0.4-1.2,0.5s-0.5,0.4-0.5,1c-0.1,0.6-0.2,1.1-0.2,1.6c0,0.9,0,2.1-0.1,3.7
			s-0.1,2.5-0.1,2.6c0,0.4,0,0.8,0,1.2s0.1,0.8,0.1,1.2c0.1,0.2,0.2,0.3,0.3,0.4c0.1,0.1,0.4,0.3,0.7,0.4c0.4,0.2,0.8,0.2,1.4,0.2
			c0.8,0,1.6-0.2,2.3-0.6c0.8-0.4,1.5-1,2.2-1.7c0.6-0.7,1-1.5,1.4-2.3c0.3-0.9,0.5-1.7,0.5-2.7c0-0.4,0-0.8-0.1-1.2
			C159.7,54,159.6,53.6,159.5,53.2z"/>
		<path class="st2" d="M184.9,51.4c-0.1,0.1-0.1,0.1-0.1,0.2c-0.9,0.1-1.7,0.2-2.4,0.2c-0.7,0.1-1.2,0.1-1.7,0.1
			c-0.2-0.4-0.5-0.8-0.9-1.2s-0.8-0.6-1.2-0.6c-0.4-0.1-0.9-0.2-1.4-0.3s-0.9-0.1-1.4-0.1c-0.7,0-1.3,0.1-1.8,0.4
			c-1,0.3-1.9,0.9-2.7,1.7c-0.9,0.8-1.4,1.7-1.6,2.5c-0.2,0.8-0.3,1.6-0.3,2.2c0,1.1,0.2,2.1,0.7,3c0.4,0.9,1.1,1.7,2,2.3
			c0.5,0.3,1.1,0.5,1.6,0.8c0.6,0.3,1.2,0.4,1.8,0.4c0.2,0,0.3,0,0.5,0s0.5-0.1,1-0.2s1.1-0.4,1.7-0.8s1.1-1,1.3-1.8
			c0.1-0.3,0.2-0.6,0.2-0.9c0-0.3,0.1-0.7,0.1-1.1c0-0.2,0-0.5,0-0.9s0-0.7,0-0.8c0.2,0,0.6-0.1,1-0.1s0.8,0,1.1,0h1.6
			c0,0,0,0,0.1,0h0.1c0,0.5-0.1,1.3-0.3,2.4s-0.3,1.8-0.3,2.2s0,0.8,0.1,1.2c0.1,0.3,0.2,0.6,0.3,0.8s0.2,0.5,0.4,0.7
			s0.2,0.4,0.3,0.6c-0.1,0-0.1,0-0.2,0l0,0c-1-0.2-2.1-0.3-3.2-0.3c-0.7,0-1.7,0-3.2,0.1s-2.4,0.1-2.9,0.1c-0.7,0.1-1.3,0.2-2,0.2
			c-1.2,0-2.4-0.2-3.6-0.7c-1.2-0.4-2.1-1.3-2.8-2.7s-1-2.8-1-4.4c0-1.7,0.4-3.2,1.2-4.5c0.8-1.4,2-2.3,3.4-2.9
			c0.8-0.4,1.6-0.6,2.4-0.7c0.9-0.1,1.8-0.2,2.9-0.2c1.1-0.2,2.2-0.4,3.3-0.4s2.1,0.1,2.9,0.3c0.8,0.2,1.4,0.5,1.7,0.9
			s0.6,0.8,0.9,1.1C184.7,50.7,184.8,51.1,184.9,51.4z"/>
		<path class="st2" d="M197.6,48.4c-0.1,0.3-0.2,0.7-0.4,1.2c-0.1,0.6-0.2,0.9-0.3,1c-0.1,0-0.2,0.1-0.2,0.1c-0.6,0-1.7,0-3.1,0
			s-2.2-0.1-2.3-0.1c-0.1,0.1-0.2,0.2-0.3,0.3c0,0.2-0.1,0.5-0.1,0.8s0,0.6,0,0.9c0,0.3,0,0.6,0,1.1s0,0.9,0,1.1
			c0,0.1,0.1,0.1,0.2,0.2c0.4,0.1,0.8,0.1,1.1,0.1s0.8,0,1.2,0c0.7,0,1.3,0,1.9-0.1c0.6,0,1.2-0.1,2-0.2c0,0.4,0,0.8-0.1,1.4
			c-0.1,0.6-0.1,1-0.1,1.3c-0.1,0-0.2,0.1-0.3,0.1c-0.5,0-1.2,0-2.3-0.1s-1.8-0.1-2.2-0.1s-0.8,0-1.3,0.1c-0.2,0.1-0.2,0.2-0.2,0.2
			c0,0.1,0,0.3,0,0.4c0,0.2,0,0.3,0,0.4c0,0.3,0,0.7,0.1,1.3c0,0.6,0.1,1,0.1,1.3s0.1,0.5,0.3,0.5c0.7,0.1,1.5,0.2,2.4,0.2
			c0.6,0,1.2,0,1.8-0.1s1.1-0.2,1.6-0.4c0.1,0,0.2,0.1,0.2,0.3v0.3c0,0.2,0,0.4,0,0.6s0,0.4,0,0.6v0.4c0,0.2,0,0.3,0,0.4
			c0,0.1,0,0.2,0,0.3c-0.6,0-1.5,0-2.8-0.1s-2.2-0.1-2.9-0.1h-4.5H187c0.2-1.2,0.3-2.4,0.4-3.7c0.1-1.3,0.1-2.7,0.1-4.3v-0.5V55
			v-0.4v-0.4v-0.3c0-0.3,0-0.6,0-1s0-0.6,0-1v-0.3c0-0.6-0.1-1.3-0.2-2c-0.1-0.7-0.2-1.2-0.3-1.7l0.1-0.1c0.7,0,1.8,0,3.4,0.1
			c1.6,0.1,2.7,0.1,3.2,0.1c0.8,0,1.5,0,2-0.1s0.9-0.1,1.3-0.2c0.4-0.1,0.6-0.1,0.8-0.2c0.1,0,0.1,0,0.1,0.1
			C197.7,48,197.6,48.2,197.6,48.4z"/>
	</g>
	<g>
		<polyline class="st2" points="180.2,7.7 185.3,0 191.9,0 		"/>
	</g>
</g>
</svg>
