<?xml version="1.0" encoding="utf-8"?>
<!-- Generator: Adobe Illustrator 21.0.0, SVG Export Plug-In . SVG Version: 6.00 Build 0)  -->
<svg version="1.1" id="Layer_1" xmlns="http://www.w3.org/2000/svg" xmlns:xlink="http://www.w3.org/1999/xlink" x="0px" y="0px"
	 width="251px" height="213.3px" viewBox="0 0 251 213.3" style="enable-background:new 0 0 251 213.3;" xml:space="preserve">
<style type="text/css">
	.st0{fill:#183807;}
	.st1{enable-background:new    ;}
	.st2{fill:#3D4D1E;}
</style>
<g id="COPY">
	<g>
		<g>
			
				<rect x="112.9" y="130.8" transform="matrix(0.998 -6.357768e-02 6.357768e-02 0.998 -8.1066 7.8453)" class="st0" width="12.6" height="1"/>
		</g>
	</g>
	<g>
		<g>
			
				<rect x="126.1" y="128.1" transform="matrix(0.9974 -7.138415e-02 7.138415e-02 0.9974 -8.8404 9.8306)" class="st0" width="14" height="1"/>
		</g>
	</g>
	<g>
		<g>
			<g>
				<g>
					<path class="st0" d="M149.4,52.3c0.2,0.2,0,0.6-0.3,0.5c-6.8-1.6-11.7-3.8-19.1-3.8c-11.2,0-19.2,0.6-28.7,3.8
						c-0.8,0.3-1.5-0.7-0.9-1.4l24.5-26.3c0.3-0.4,0.9-0.4,1.3,0L149.4,52.3z"/>
				</g>
			</g>
			<g>
				<g>
					<path class="st0" d="M149.4,52.2c0.1,0.1,0.1,0.4,0,0.5c-0.2,0.1-0.4,0.1-0.5,0l-0.9-0.2l-1.9-0.5c-1.3-0.3-2.5-0.7-3.8-1
						c-2.5-0.6-5.1-1.2-7.6-1.5c-2.6-0.3-5.1-0.2-7.7-0.2c-2.6,0.1-5.2,0.1-7.8,0.3c-5.2,0.3-10.3,1-15.3,2.5
						c-0.6,0.2-1.2,0.4-1.9,0.6c-0.3,0.1-0.6,0.2-1,0.3c-0.4,0-0.8-0.2-0.9-0.6c-0.2-0.3-0.1-0.8,0.1-1.1l0.7-0.7l1.3-1.4
						c1.8-1.9,3.5-3.8,5.2-5.8c3.5-3.9,7-7.7,10.5-11.5l5.3-5.7l0.7-0.7l0.3-0.4l0.2-0.2c0.1-0.1,0.1-0.1,0.2-0.2
						c0.4-0.3,1-0.4,1.5-0.2c0.2,0.1,0.5,0.4,0.5,0.4l0.3,0.4l2.5,3c3.4,3.9,6.7,7.9,10,11.9C142.8,44.3,146.1,48.3,149.4,52.2z
						 M149.4,52.3c-3.4-3.9-6.9-7.8-10.4-11.6c-3.5-3.8-6.9-7.8-10.3-11.7l-2.5-2.9c-0.2-0.2-0.5-0.6-0.5-0.6c-0.1-0.1-0.3,0-0.3,0
						l-1.3,1.4l-5.4,5.7c-3.6,3.8-7.2,7.5-10.8,11.3c-1.8,1.9-3.6,3.7-5.4,5.6l-1.3,1.4l-0.7,0.7c-0.2,0.2-0.2,0.5-0.1,0.7
						s0.4,0.4,0.6,0.4s0.6-0.2,0.9-0.3c0.6-0.2,1.2-0.4,1.9-0.6c2.5-0.7,5-1.4,7.6-1.9s5.2-0.8,7.8-1.1c2.6-0.2,5.2-0.3,7.8-0.3
						c2.6,0,5.2,0,7.8,0.4c2.6,0.4,5.1,1.1,7.6,1.8c1.2,0.4,2.5,0.7,3.7,1.1l1.9,0.5l0.9,0.2c0.2,0,0.3,0.1,0.4,0
						C149.4,52.6,149.5,52.4,149.4,52.3z"/>
				</g>
			</g>
		</g>
		<g>
			<g>
				<path class="st0" d="M106,48.3v-11l4.5-3.4l4.5,3.4v6.6L106,48.3z M107,37.7v9l7-3.5v-5.4l-3.5-2.6L107,37.7z"/>
			</g>
		</g>
		<g>
			<g>
				<path class="st0" d="M132,81h-1V60c0-3.3-2.7-6-6-6s-6,2.7-6,6v21h-1V60c0-3.9,3.1-7,7-7s7,3.1,7,7V81z"/>
			</g>
		</g>
		<g>
			<g>
				<path class="st0" d="M141,69c-1.4,0-2.5-1.1-2.5-2.5v-9c0-1.4,1.1-2.5,2.5-2.5s2.5,1.1,2.5,2.5v9C143.5,67.9,142.4,69,141,69z
					 M141,56c-0.8,0-1.5,0.7-1.5,1.5v9c0,0.8,0.7,1.5,1.5,1.5s1.5-0.7,1.5-1.5v-9C142.5,56.7,141.8,56,141,56z"/>
			</g>
		</g>
		<g>
			<g>
				<path class="st0" d="M108.5,69c-1.4,0-2.5-1.1-2.5-2.5v-9c0-1.4,1.1-2.5,2.5-2.5s2.5,1.1,2.5,2.5v9C111,67.9,109.9,69,108.5,69z
					 M108.5,56c-0.8,0-1.5,0.7-1.5,1.5v9c0,0.8,0.7,1.5,1.5,1.5s1.5-0.7,1.5-1.5v-9C110,56.7,109.3,56,108.5,56z"/>
			</g>
		</g>
		<g>
			<g>
				<path class="st0" d="M111.1,43.8h-1.4c-0.3,0-0.6-0.3-0.6-0.6v-4.8c0-0.3,0.3-0.6,0.6-0.6h1.4c0.3,0,0.6,0.3,0.6,0.6v4.8
					C111.7,43.5,111.4,43.8,111.1,43.8z"/>
			</g>
		</g>
		<g>
			<g>
				<rect x="103" y="36" transform="matrix(0.7071 -0.7071 0.7071 0.7071 5.3258 86.8808)" class="st0" width="9" height="2"/>
			</g>
		</g>
		<g>
			<g>
				<path class="st0" d="M123.8,56.9c-1.5,0.5-2.7,2.2-2.9,4.2c-0.1,0.5,0.3,0.9,0.8,0.9h2.4c0.4,0,0.8-0.3,0.8-0.8v-3.6
					C124.8,57.1,124.3,56.7,123.8,56.9z"/>
			</g>
		</g>
		<g>
			<g>
				<path class="st0" d="M129.5,61.1c-0.3-2-1.4-3.7-2.9-4.2c-0.5-0.2-1,0.2-1,0.7v3.6c0,0.4,0.3,0.8,0.8,0.8h2.4
					C129.2,62,129.5,61.6,129.5,61.1z"/>
			</g>
		</g>
		<g>
			<g>
				<path class="st0" d="M120.9,63.3c0.2,2.5,1.4,4.5,3,5.1c0.5,0.2,0.9-0.2,0.9-0.6v-4.5c0-0.4-0.3-0.7-0.7-0.7h-2.6
					C121.1,62.5,120.8,62.9,120.9,63.3z"/>
			</g>
		</g>
		<g>
			<g>
				<path class="st0" d="M125.5,63.2v4.5c0,0.5,0.5,0.8,1,0.7c1.6-0.6,2.8-2.6,3-5.1c0-0.4-0.3-0.8-0.7-0.8h-2.6
					C125.8,62.5,125.5,62.8,125.5,63.2z"/>
			</g>
		</g>
		<g>
			<g>
				<g>
					<path class="st0" d="M77.6,54.1c1-1.4,2.3-2.5,3.5-3.5c0.7-0.5,1.3-0.9,2-1.3c0.7-0.4,1.5-0.6,2.3-0.9c1.6-0.5,3-1.2,4.2-2.3
						c0.6-0.5,1.2-1.1,1.8-1.7c0.6-0.5,1.2-1,1.9-1.5l0.5-0.4l0.8,0.3c0.9,0.3,1.9,0.7,2.8,1.1c0.9,0.4,1.8,0.9,2.6,1.4
						c0.8,0.5,1.7,1.1,2.5,1.7c0.8,0.6,1.6,1.2,2.3,2l-0.1,0.3c-1.1-0.1-2.1-0.3-3-0.5c-1-0.2-1.9-0.5-2.9-0.8
						c-0.9-0.3-1.9-0.7-2.7-1.1c-0.9-0.4-1.7-0.9-2.6-1.4l1.3-0.1c-0.7,0.4-1.5,0.7-2.2,1c-0.8,0.3-1.6,0.5-2.3,0.8
						c-1.5,0.6-2.9,1.5-4,2.7c-0.6,0.6-1.2,1.2-1.8,1.6c-0.7,0.5-1.4,0.8-2.1,1.2c-1.5,0.7-3,1.3-4.7,1.5L77.6,54.1z"/>
				</g>
			</g>
		</g>
		<g>
			<g>
				<g>
					<path class="st0" d="M142.3,47.7c0.5-0.6,1-1.2,1.5-1.7s1.1-1,1.7-1.4c1.2-0.8,2.4-1.7,3.8-2.1l1-0.4l0.4,0.5
						c0.6,0.7,1.1,1.5,1.7,2.2c0.6,0.7,1.2,1.3,1.9,1.9c1.4,1.1,3.2,1.8,4.7,2.8h-1.7c0.9-0.8,1.7-1.6,2.6-2.4
						c0.9-0.8,1.8-1.5,2.8-2.1s2-1.2,3.1-1.8c1.1-0.5,2.2-1,3.4-1.4l0.2,0.3c-0.7,1.1-1.4,2-2.2,2.9s-1.6,1.8-2.5,2.5
						c-0.9,0.8-1.8,1.5-2.8,2.2s-2,1.3-3,1.9l-1.1,0.6l-0.6-0.7c-1.2-1.3-2.2-2.9-3.5-4.2c-0.7-0.6-1.4-1.2-2.2-1.6
						c-0.8-0.5-1.7-0.8-2.4-1.3l1.5,0.1c-1.1,0.9-2.5,1.5-3.8,2.1c-0.7,0.3-1.4,0.5-2.1,0.7c-0.7,0.2-1.4,0.4-2.2,0.4H142.3z"/>
				</g>
			</g>
		</g>
		<g>
			<g>
				
					<rect x="112.2" y="31.8" transform="matrix(0.6061 -0.7954 0.7954 0.6061 15.7001 104.3679)" class="st0" width="2" height="9"/>
			</g>
		</g>
		<g>
			<g>
				
					<rect x="91.1" y="105" transform="matrix(0.2413 -0.9705 0.9705 0.2413 -13.9878 193.2084)" class="st0" width="51" height="1.1"/>
			</g>
		</g>
		<g>
			<g>
				
					<rect x="125.1" y="80.5" transform="matrix(1 -3.763029e-03 3.763029e-03 1 -0.4021 0.4735)" class="st0" width="1.1" height="53.2"/>
			</g>
		</g>
		<g>
			<g>
				
					<rect x="134" y="79.7" transform="matrix(0.9691 -0.2467 0.2467 0.9691 -21.7576 36.4473)" class="st0" width="1.1" height="50.7"/>
			</g>
		</g>
		<g>
			<g>
				
					<rect x="119.3" y="81.7" transform="matrix(0.1137 -0.9935 0.9935 0.1137 23.286 193.1018)" class="st0" width="1.1" height="3.5"/>
			</g>
		</g>
		<g>
			<g>
				
					<rect x="117.7" y="85.1" transform="matrix(0.1961 -0.9806 0.9806 0.1961 9.4228 186.1934)" class="st0" width="1.1" height="4.6"/>
			</g>
		</g>
		<g>
			<g>
				
					<rect x="116.8" y="87.2" transform="matrix(0.2383 -0.9712 0.9712 0.2383 2.043 182.5048)" class="st0" width="1.1" height="5.5"/>
			</g>
		</g>
		<g>
			<g>
				
					<rect x="112.8" y="91.8" transform="matrix(0.9973 -7.327916e-02 7.327916e-02 0.9973 -6.4549 8.7647)" class="st0" width="6.8" height="1.1"/>
			</g>
		</g>
		<g>
			<g>
				
					<rect x="114.2" y="92.8" transform="matrix(0.1322 -0.9912 0.9912 0.1322 3.8477 197.595)" class="st0" width="1.1" height="7.6"/>
			</g>
		</g>
		<g>
			<g>
				
					<rect x="111.5" y="98.3" transform="matrix(7.422848e-02 -0.9972 0.9972 7.422848e-02 0.938 207.1105)" class="st0" width="1.1" height="9.4"/>
			</g>
		</g>
		<g>
			<g>
				
					<rect x="108.1" y="105.5" transform="matrix(3.965103e-02 -0.9992 0.9992 3.965103e-02 -7.4499 215.9478)" class="st0" width="1.1" height="12.6"/>
			</g>
		</g>
		<g>
			<g>
				
					<rect x="105.2" y="112.4" transform="matrix(0.3487 -0.9372 0.9372 0.3487 -42.9259 176.8284)" class="st0" width="1.1" height="13.8"/>
			</g>
		</g>
		<g>
			<g>
				<rect x="122.3" y="81.6" class="st0" width="2.9" height="1"/>
			</g>
		</g>
		<g>
			<g>
				
					<rect x="123.1" y="83.4" transform="matrix(0.102 -0.9948 0.9948 0.102 26.0092 199.6129)" class="st0" width="1" height="3.9"/>
			</g>
		</g>
		<g>
			<g>
				
					<rect x="120.7" y="88.7" transform="matrix(0.9991 -4.239194e-02 4.239194e-02 0.9991 -3.6707 5.2973)" class="st0" width="4.7" height="1"/>
			</g>
		</g>
		<g>
			<g>
				
					<rect x="122.3" y="90.7" transform="matrix(8.443753e-02 -0.9964 0.9964 8.443753e-02 19.087 208.0726)" class="st0" width="1" height="5.9"/>
			</g>
		</g>
		<g>
			<g>
				
					<rect x="121.5" y="95.3" transform="matrix(1.352476e-02 -0.9999 0.9999 1.352476e-02 21.3274 219.718)" class="st0" width="1" height="7.4"/>
			</g>
		</g>
		<g>
			<g>
				<rect x="116.3" y="105.8" class="st0" width="9.4" height="1"/>
			</g>
		</g>
		<g>
			<g>
				
					<rect x="119.6" y="109" transform="matrix(1.810783e-02 -0.9998 0.9998 1.810783e-02 3.4625 232.5258)" class="st0" width="1" height="11"/>
			</g>
		</g>
		<g>
			<g>
				
					<rect x="118.9" y="115.3" transform="matrix(0.1796 -0.9837 0.9837 0.1796 -21.802 217.3564)" class="st0" width="1" height="12.8"/>
			</g>
		</g>
		<g>
			<g>
				<rect x="125.7" y="82.4" class="st0" width="3.2" height="1"/>
			</g>
		</g>
		<g>
			<g>
				
					<rect x="127.2" y="84.4" transform="matrix(4.545292e-02 -0.999 0.999 4.545292e-02 35.4029 210.2505)" class="st0" width="1" height="4.4"/>
			</g>
		</g>
		<g>
			<g>
				<rect x="125.6" y="90.3" class="st0" width="5.3" height="1"/>
			</g>
		</g>
		<g>
			<g>
				<path class="st0" d="M132.1,96.7c-2.2-0.1-5.9-0.4-6.3-0.3l0-0.4l-0.4-0.4c0.2-0.2,0.3-0.3,6.8,0.2L132.1,96.7z"/>
			</g>
		</g>
		<g>
			<g>
				<rect x="125.9" y="101.5" class="st0" width="7.7" height="1"/>
			</g>
		</g>
		<g>
			<g>
				
					<rect x="125.7" y="109.8" transform="matrix(1 -9.633465e-03 9.633465e-03 1 -1.057 1.2654)" class="st0" width="10.2" height="1"/>
			</g>
		</g>
		<g>
			<g>
				
					<rect x="125.9" y="117.5" transform="matrix(0.9918 -0.1281 0.1281 0.9918 -14.0332 17.8403)" class="st0" width="11.7" height="1"/>
			</g>
		</g>
		<g>
			<g>
				<rect x="129.5" y="84.2" class="st0" width="4.1" height="1"/>
			</g>
		</g>
		<g>
			<g>
				<path class="st0" d="M130.5,89.1l-0.1-0.5h-0.6c0-0.6,0-0.6,5.5-1l0.1,1C133.2,88.8,130.8,89,130.5,89.1z"/>
			</g>
		</g>
		<g>
			<g>
				
					<rect x="131.3" y="91.7" transform="matrix(0.998 -6.357768e-02 6.357768e-02 0.998 -5.5898 8.7357)" class="st0" width="6.3" height="1"/>
			</g>
		</g>
		<g>
			<g>
				<rect x="132.9" y="97.5" class="st0" width="8.1" height="1"/>
			</g>
		</g>
		<g>
			<g>
				
					<rect x="134.8" y="104.9" transform="matrix(0.9954 -9.540025e-02 9.540025e-02 0.9954 -9.4188 13.8912)" class="st0" width="11.6" height="1"/>
			</g>
		</g>
		<g>
			<g>
				
					<rect x="136.9" y="112.8" transform="matrix(0.9979 -6.549613e-02 6.549613e-02 0.9979 -7.1154 9.6564)" class="st0" width="13.6" height="1"/>
			</g>
		</g>
		<g>
			<g>
				
					<rect x="139.4" y="121.5" transform="matrix(0.9822 -0.1878 0.1878 0.9822 -20.3109 29.6931)" class="st0" width="14.4" height="1"/>
			</g>
		</g>
		<g id="XMLID_7_">
			<g>
				<g>
					<g>
						<path class="st0" d="M143.5,80.5l29.9-0.4c-1.9,16.6-8.5,31.1-17.9,41.1l-0.5-0.5l-23.9-39.4v-0.8
							C131.1,80.5,143.5,80.5,143.5,80.5z"/>
					</g>
				</g>
			</g>
			<g>
				<g>
					<g>
						<path class="st0" d="M144,81h-38V47h38V81z M107,80h36V48h-36V80z"/>
					</g>
				</g>
				<g>
					<g>
						<polygon class="st0" points="154.6,121 130.8,81.8 128.4,82 128.3,81 131.4,80.8 155.5,120.4 						"/>
					</g>
				</g>
				<g>
					<g>
						<path class="st0" d="M125.6,137.4c-28,0-50.8-30.2-50.8-67.4S97.6,2.6,125.5,2.6s50.7,30.2,50.7,67.4c0,3.5-0.2,7-0.6,10.4
							c-1.9,16.7-8.4,31.7-18.4,42.3l0,0C148.1,132.3,137.2,137.4,125.6,137.4z M125.5,7C100,7,79.2,35.2,79.2,70s20.8,63,46.4,63
							c10.4,0,20.2-4.6,28.4-13.3c9.3-9.9,15.4-24.1,17.2-39.9c0.4-3.2,0.6-6.5,0.6-9.9C171.9,35.2,151.1,7,125.5,7z"/>
					</g>
				</g>
				<g>
					<g>
						<polygon class="st0" points="143.5,81 143.5,80 174,79.6 174,80.6 173.4,80.6 						"/>
					</g>
				</g>
			</g>
		</g>
		<g>
			<g>
				
					<rect x="77.7" y="80.1" transform="matrix(1 -6.743585e-03 6.743585e-03 1 -0.5414 0.623)" class="st0" width="28.8" height="1"/>
			</g>
		</g>
		<g id="XMLID_6_">
			<g>
				<g>
					<g>
						<path class="st0" d="M119.6,80.5L96.3,122C87.9,115.9,77,81,77,81L119.6,80.5z"/>
					</g>
				</g>
			</g>
			<g>
				<g>
					<g>
						<path class="st0" d="M96.5,122.8l-0.5-0.3c-8.4-6.2-19-39.9-19.5-41.4l-0.2-0.6l44.2-0.5L96.5,122.8z M77.7,81.5
							c1.5,4.7,11,33.5,18.5,39.8L118.7,81L77.7,81.5z"/>
					</g>
				</g>
			</g>
		</g>
	</g>
	<g id="XMLID_2_">
		<g class="st1">
			<path class="st0" d="M40.6,153.9c-1.1,1.4-2.2,2.7-3.4,3.9c-1.2,1.3-2.4,2.2-3.4,2.9c-0.1,0-1.7-0.6-4.6-1.6
				c-2.9-1-4.9-1.5-6.1-1.5c-1,0-2,0.2-2.9,0.6c-2.5,1.6-4.5,3.5-6,5.6c-1.5,2.1-2.3,4.6-2.3,7.3c0.3,1.8,0.8,3.4,1.5,4.8
				c0.7,1.4,1.7,2.5,3.1,3.1c1.8,1,3.7,1.5,5.7,1.5c2.5,0,5.4-0.8,8.6-2.5c3.2-1.6,6.3-3.2,9.2-4.7l-4.5,9.9
				c-1.5,0.3-3.3,0.5-5.5,0.7c-2.2,0.2-5.2,0.3-9,0.3h-4.6c-0.5,0-1,0-1.5,0c-0.5,0-1,0-1.6,0c-0.7,0-1.4,0-2.1-0.1
				c-0.7-0.1-1.2-0.3-1.7-0.6c-2.3-1.2-4.2-2.9-5.5-5.1s-2-4.7-2-7.3c0-2.7,0.6-5.1,1.8-7.3c1.2-2.1,3-4.2,5.3-6.1
				c2.9-1.4,6.6-2.5,10.9-3.3c4.4-0.8,10.5-1.2,18.5-1.2c0.1,0.2,0.5,0.2,1.2,0c0.7-0.2,1.1-0.3,1.2-0.3c0.1,0,0.2,0.1,0.1,0.2
				C41.1,153.2,40.9,153.5,40.6,153.9z"/>
			<path class="st0" d="M81.5,153.9c-1.1,1.4-2.2,2.7-3.4,3.9c-1.2,1.3-2.4,2.2-3.4,2.9c-0.1,0-1.7-0.6-4.6-1.6
				c-2.9-1-4.9-1.5-6.1-1.5c-1,0-2,0.2-2.9,0.6c-2.5,1.6-4.5,3.5-6,5.6c-1.5,2.1-2.3,4.6-2.3,7.3c0.3,1.8,0.8,3.4,1.5,4.8
				c0.7,1.4,1.7,2.5,3.1,3.1c1.8,1,3.7,1.5,5.7,1.5c2.5,0,5.4-0.8,8.6-2.5c3.2-1.6,6.3-3.2,9.2-4.7l-4.5,9.9
				c-1.5,0.3-3.3,0.5-5.5,0.7c-2.2,0.2-5.2,0.3-9,0.3h-4.6c-0.5,0-1,0-1.5,0c-0.5,0-1,0-1.6,0c-0.7,0-1.4,0-2.1-0.1
				c-0.7-0.1-1.2-0.3-1.7-0.6c-2.3-1.2-4.2-2.9-5.5-5.1s-2-4.7-2-7.3c0-2.7,0.6-5.1,1.8-7.3c1.2-2.1,3-4.2,5.3-6.1
				c2.9-1.4,6.6-2.5,10.9-3.3c4.4-0.8,10.5-1.2,18.5-1.2c0.1,0.2,0.5,0.2,1.2,0c0.7-0.2,1.1-0.3,1.2-0.3c0.1,0,0.2,0.1,0.1,0.2
				C82,153.2,81.8,153.5,81.5,153.9z"/>
			<path class="st0" d="M124.3,153.9c-1,3.3-1.7,6.5-2.2,9.6c-0.5,3.1-0.7,6.1-0.7,9c0,3.2,0.3,6.8,0.9,11c-0.1,0.3-0.2,0.5-0.3,0.5
				l-10.1-0.2c0,0-0.2-0.3-0.3-0.7c-0.2-0.4-0.4-0.6-0.7-0.6c-1.3,0.5-2.6,0.8-4,0.9c-1.4,0.1-3.1,0.2-5.2,0.2
				c-1.8,0.5-3.5,0.7-5.1,0.7c-2,0-3.9-0.3-5.6-1c-1.7-0.7-3-1.8-4-3.2c-1-1.4-1.7-3-2.2-4.6c-0.5-1.6-0.7-3.3-0.7-5
				c0-2.5,0.5-4.8,1.5-7c1.1-2.8,3-5.1,5.8-6.9c2.7-1.8,5.7-2.8,8.9-3.1c0.4,0,0.7,0,1,0c0.3,0,0.7,0,1,0c0.8,0,2.1-0.1,3.9-0.2
				c1.8-0.1,3.1-0.2,4-0.2c1,0,2,0.1,2.9,0.2c0.9,0.1,1.8,0.4,2.5,0.7c0.7,0.3,1.5,0.5,2.3,0.5c0.8,0,1.7-0.2,2.8-0.5
				c1.1-0.3,2.1-0.6,3.1-0.9c0.4,0,0.6,0.1,0.6,0.3L124.3,153.9z M112.9,163.2c-0.2-1.3-1.3-2.5-3.3-3.8c-2-1.3-3.9-1.9-5.8-1.9
				c-1.6,0.6-3.1,1.5-4.5,2.7c-1.4,1.2-2.6,2.7-3.5,4.4c-0.9,1.7-1.4,3.7-1.4,5.9c0,2.1,0.5,3.9,1.6,5.4c0.6,1,1.3,1.8,2.1,2.4
				c0.9,0.6,1.8,0.9,2.8,0.9c0.5,0,1.2-0.2,2.3-0.6c1.1-0.4,2.5-1.4,4.3-3c1.7-1.7,2.9-3.2,3.6-4.7c0.7-1.5,1.1-2.7,1.5-3.7
				c0.3-0.9,0.5-1.8,0.5-2.7C113.1,163.9,113,163.4,112.9,163.2z"/>
			<path class="st0" d="M159.2,155c-0.9,1.9-1.8,3.8-2.7,5.7l-0.3,0.3c-1.4,0-3.6,0-6.7-0.1c-3.1-0.1-4.7-0.1-5-0.1
				c-0.5,0-0.8,0.2-1,0.6c-0.2,0.4-0.4,0.9-0.6,1.3c-0.5,2.1-0.8,4.1-0.8,6.2c0,2.1,0.3,4,0.8,5.8c0.5,1.8,1.3,3.2,2.3,4.2
				c1,1,2,1.5,3,1.5c0.3,0,0.8-0.1,1.5-0.3c0.7-0.2,1.4-0.5,2.1-0.8c0.7-0.4,3-1.7,6.8-3.8c-0.3,1.3-0.8,3-1.5,5
				c-0.5,1.4-0.9,2.4-1,3l-0.6,0.4h-16.1c-1-0.2-2-0.6-2.8-1.2s-1.8-1.9-2.9-3.9c-1.1-2-1.6-5-1.6-9c0-2.8,0.4-5.6,1.2-8.2
				c-0.2-0.6-0.8-0.8-1.7-0.8c-0.8,0-1.6,0-2.4,0h-0.3c0.1-1.3,0.2-2.4,0.2-3.2c0.1-0.9,0.2-1.6,0.5-2.4c0.5-0.1,1-0.1,1.6-0.1
				c0.6,0,1,0,1.3,0h1.1c0.3,0,0.6,0,1-0.1c0.4,0,0.7-0.1,0.8-0.1c1.2-2,2.2-3.6,3-4.8c0.8-1.2,1.7-2.5,2.7-3.8
				c0.4-0.3,0.6-0.4,0.8-0.4c2.2-0.3,4.8-0.5,7.6-0.7c2.9-0.2,5.5-0.3,8.1-0.5c-3.3,3.2-6.7,6.4-10,9.6c0.1,0.2,0.4,0.4,0.8,0.4
				c1.3,0,3.3,0,6.2-0.1c2.9-0.1,4.4-0.1,4.5-0.1C159.4,154.5,159.4,154.8,159.2,155z"/>
			<path class="st0" d="M202.8,153.9c-1,3.3-1.7,6.5-2.2,9.6s-0.7,6.1-0.7,9c0,3.2,0.3,6.8,0.9,11c-0.1,0.3-0.2,0.5-0.3,0.5
				l-10.1-0.2c0,0-0.2-0.3-0.3-0.7c-0.2-0.4-0.4-0.6-0.7-0.6c-1.3,0.5-2.6,0.8-4,0.9c-1.4,0.1-3.1,0.2-5.2,0.2
				c-1.8,0.5-3.5,0.7-5.1,0.7c-2,0-3.9-0.3-5.6-1c-1.7-0.7-3-1.8-4-3.2c-1-1.4-1.7-3-2.2-4.6c-0.5-1.6-0.7-3.3-0.7-5
				c0-2.5,0.5-4.8,1.5-7c1.1-2.8,3-5.1,5.8-6.9c2.7-1.8,5.7-2.8,8.9-3.1c0.4,0,0.7,0,1,0c0.3,0,0.7,0,1,0c0.8,0,2.1-0.1,3.9-0.2
				c1.8-0.1,3.1-0.2,4-0.2c1,0,2,0.1,2.9,0.2c0.9,0.1,1.8,0.4,2.5,0.7c0.7,0.3,1.5,0.5,2.3,0.5c0.8,0,1.7-0.2,2.8-0.5
				c1.1-0.3,2.1-0.6,3.1-0.9c0.4,0,0.6,0.1,0.6,0.3L202.8,153.9z M191.4,163.2c-0.2-1.3-1.3-2.5-3.3-3.8c-2-1.3-3.9-1.9-5.8-1.9
				c-1.6,0.6-3.1,1.5-4.5,2.7c-1.4,1.2-2.6,2.7-3.5,4.4c-0.9,1.7-1.4,3.7-1.4,5.9c0,2.1,0.5,3.9,1.6,5.4c0.6,1,1.3,1.8,2.1,2.4
				c0.9,0.6,1.8,0.9,2.8,0.9c0.5,0,1.2-0.2,2.3-0.6c1.1-0.4,2.5-1.4,4.3-3c1.7-1.7,2.9-3.2,3.6-4.7c0.7-1.5,1.1-2.7,1.5-3.7
				c0.3-0.9,0.5-1.8,0.5-2.7C191.6,163.9,191.5,163.4,191.4,163.2z"/>
			<path class="st0" d="M249.2,177c-0.4,0.9-1,1.9-1.6,3c-0.7,1.2-1.3,2.3-1.9,3.3l-0.4,0.6c-1.6-0.2-3.5-0.3-5.7-0.4
				c-2.2-0.1-4.6-0.1-7.2-0.1h-7.7c2.1-1.9,3.8-3.5,5.4-4.9c1.5-1.4,2.8-2.9,3.9-4.4c0.8-1.4,1.6-2.9,2.1-4.4c0.6-1.5,0.9-3,0.9-4.4
				c0-0.8-0.1-1.6-0.4-2.4c-0.3-0.8-0.7-1.5-1.2-2.2s-1.3-1.2-2.1-1.6c-0.9-0.4-1.9-0.7-3-0.8c-2.6,0.4-4.9,1.7-7,3.9
				c-2.1,2.2-3.4,4.2-4,5.9c-0.6,1.8-1,3.2-1.1,4.3c-0.1,1.1-0.2,2.1-0.2,3c0,1.2,0,2.7,0.1,4.6c0.1,1.9,0.1,3,0.1,3.3v0.1h-10.9
				H207c0.7-3.3,1.4-6.3,1.8-8.9c0.5-2.6,0.7-5.1,0.7-7.5c0-2.5-0.3-4.7-0.8-6.6c-0.5-1.9-1.4-3.7-2.7-5.4v-0.4c2,0,4-0.1,6-0.3
				c1.9-0.2,3.8-0.5,5.5-1c0.6-0.2,0.9-0.1,1,0.3c0.1,0.7,0.2,1.1,0.2,1.3c0,0.2,0.1,0.5,0.2,0.7c0.1,0.2,0.3,0.4,0.6,0.5
				c2-0.6,3.8-1.1,5.5-1.4c1.7-0.3,3.5-0.5,5.5-0.5c1-0.2,2.2-0.4,3.4-0.6c1.2-0.2,2.4-0.3,3.5-0.3c1.3,0,2.4,0.1,3.4,0.3
				c1,0.2,2,0.8,3.2,1.6c1.2,0.9,2.1,2.1,2.7,3.6c0.6,1.6,0.9,3.3,0.9,5.3c0,0.4,0,0.7,0,1.1c-0.1,0.6-0.2,1.4-0.3,2.5
				c-0.1,1.1-0.7,2.6-1.6,4.5c-1,1.9-2.2,3.7-3.7,5.4c0,0.6,0.1,0.8,0.4,0.8c1.5-0.4,2.8-0.7,3.7-0.9
				C247,177.7,248.1,177.4,249.2,177z"/>
		</g>
		<g class="st1">
			<path class="st2" d="M62.7,192c-0.1,0.3-0.2,0.7-0.4,1.2c-0.1,0.6-0.2,0.9-0.3,1c-0.1,0-0.2,0.1-0.2,0.1c-0.6,0-1.7,0-3.1,0
				c-1.4,0-2.2-0.1-2.3-0.1c-0.1,0.1-0.2,0.2-0.3,0.3c0,0.2-0.1,0.5-0.1,0.8c0,0.3,0,0.6,0,0.9c0,0.3,0,0.6,0,1.1c0,0.5,0,0.9,0,1.1
				c0,0.1,0.1,0.1,0.2,0.2c0.4,0.1,0.8,0.1,1.1,0.1c0.3,0,0.8,0,1.2,0c0.7,0,1.3,0,1.9-0.1s1.2-0.1,2-0.2c0,0.4,0,0.8-0.1,1.4
				c-0.1,0.6-0.1,1-0.1,1.3c-0.1,0-0.2,0.1-0.3,0.1c-0.5,0-1.2,0-2.3-0.1c-1.1-0.1-1.8-0.1-2.2-0.1c-0.4,0-0.8,0-1.3,0.1
				c-0.2,0.1-0.2,0.2-0.2,0.2c0,0.1,0,0.3,0,0.4c0,0.2,0,0.3,0,0.4c0,0.3,0,0.7,0.1,1.3c0,0.6,0.1,1,0.1,1.3c0,0.3,0.1,0.5,0.3,0.5
				c0.7,0.1,1.5,0.2,2.4,0.2c0.6,0,1.2,0,1.8-0.1s1.1-0.2,1.6-0.4c0.1,0,0.2,0.1,0.2,0.3v0.3c0,0.2,0.1,0.4,0.1,0.6s0,0.4,0,0.6v0.4
				c0,0.2,0,0.3,0,0.4c0,0.1,0,0.2,0,0.3c-0.6,0-1.5,0-2.8-0.1c-1.3-0.1-2.2-0.1-2.9-0.1h-4.5c0,0-0.1,0-0.1,0
				c0.2-1.2,0.3-2.4,0.4-3.7c0.1-1.3,0.1-2.7,0.1-4.3v-0.5v-0.5v-0.4v-0.4v-0.3c0-0.3,0-0.6,0-1s0-0.6,0-1v-0.3c0-0.6-0.1-1.3-0.2-2
				c-0.1-0.7-0.2-1.2-0.3-1.7l0.1-0.1c0.7,0,1.8,0,3.4,0.1c1.6,0.1,2.7,0.1,3.2,0.1c0.8,0,1.5,0,2-0.1s0.9-0.1,1.3-0.2
				c0.4-0.1,0.6-0.1,0.8-0.2c0.1,0,0.1,0,0.1,0.1C62.8,191.6,62.8,191.8,62.7,192z"/>
			<path class="st2" d="M82.7,193.9c0,0.2-0.1,0.3-0.3,0.3c-1,0.4-2,0.9-3.1,1.3c-0.1,0-0.2,0-0.3,0c-0.7-0.8-1.5-1.4-2.4-1.8
				c-0.9-0.4-1.8-0.6-2.8-0.6c-1.2,0.2-2.2,0.7-3.1,1.5c-0.9,0.8-1.6,1.7-1.9,2.7c-0.3,1-0.5,1.9-0.5,2.8c0,0.9,0.2,1.8,0.5,2.7
				c0.3,0.8,0.8,1.6,1.5,2.2c0.5,0.5,1.1,0.8,1.7,1.1c0.6,0.3,1.3,0.4,1.9,0.4c0.4,0,1.3-0.2,2.7-0.5c1.4-0.4,3.2-1.2,5.3-2.4
				c-0.2,1-0.4,1.8-0.6,2.5c-0.2,0.7-0.4,1.2-0.5,1.5c-0.1,0-0.2,0.1-0.2,0.1c-0.7,0.1-1.5,0.2-2.2,0.2c-0.8,0-1.6,0-2.4,0h-0.4
				h-0.3c-0.3,0-0.6,0-1,0c-0.3,0-0.6,0-0.9,0h-0.3c-0.2,0-0.4,0-0.7,0c-0.2,0-0.4,0-0.6,0c-1.4,0-2.6-0.2-3.6-0.7
				c-1.1-0.5-1.9-1.3-2.7-2.5c-0.7-1.2-1.1-2.6-1.1-4.4c0-0.9,0.1-1.9,0.4-2.8c0.3-0.9,0.7-1.7,1.2-2.4c1.9-2.3,4.3-3.4,7.3-3.4
				c0.8-0.1,1.4-0.2,1.9-0.2c0.5-0.1,1-0.1,1.5-0.1c0.3,0,0.8,0,1.4,0.1c0.6,0.1,1.5,0.5,2.7,1.1C82.1,193.3,82.7,193.7,82.7,193.9z
				"/>
			<path class="st2" d="M102.7,195.1c0.3,0.6,0.5,1.2,0.7,1.8c0.2,0.7,0.2,1.4,0.2,2c0,0.9-0.1,1.8-0.4,2.7
				c-0.3,0.9-0.8,1.8-1.5,2.8c-0.7,1-1.8,1.8-3.2,2.4c-1.4,0.6-3,0.9-4.7,0.9c-1,0.2-1.9,0.3-2.8,0.3c-1.1,0-2-0.2-2.9-0.5
				c-0.9-0.3-1.7-0.8-2.3-1.6c-0.6-0.7-1.1-1.6-1.5-2.5c-0.4-1-0.5-2-0.5-3c0-1,0.2-2.1,0.6-3.2c0.4-1.1,1.2-2.2,2.5-3.2
				c1.3-1,2.6-1.7,4.1-1.9c1-0.1,1.7-0.2,2.2-0.3c0.5-0.1,0.9-0.2,1.3-0.3c0.4-0.1,0.7-0.2,1-0.2c0.3,0,0.6,0,0.9,0
				c1.3,0,2.6,0.3,3.7,1C101.3,193.1,102.1,194,102.7,195.1z M98.8,196.2c-0.6-0.9-1.1-1.6-1.8-2s-1.2-0.6-1.9-0.8
				c-0.6-0.2-1.1-0.2-1.5-0.2c-0.6,0-1.2,0.1-1.8,0.4c-0.6,0.3-1.2,0.7-1.9,1.3c-0.7,0.7-1.3,1.5-1.7,2.5c-0.4,0.9-0.6,1.9-0.6,2.9
				c0,0.9,0.2,1.8,0.6,2.7c0.4,1,1.1,1.8,2.1,2.4s2.1,1,3.3,1c2-0.3,3.5-1.1,4.5-2.5c1-1.4,1.5-2.9,1.5-4.4
				C99.7,198.2,99.4,197.1,98.8,196.2z"/>
			<path class="st2" d="M125.7,205.2l-1,2.3c-0.1,0.1-0.2,0.2-0.2,0.2c-1.4,0-3.2,0-5.5-0.1c-2.2,0-3.5-0.1-3.8-0.1l-0.1-0.1
				c0.1-0.8,0.1-1.6,0.2-2.4c0-0.9,0.1-1.7,0.1-2.6c0-1.4,0-3.1-0.1-5.2s-0.1-3.1-0.1-3.2c0-0.3-0.1-0.6-0.1-0.9s-0.1-0.7-0.3-1.3
				l0.1,0c0.4,0,0.8,0,1.2,0c0.4,0,0.9,0,1.3,0c0.7,0,1.2,0,1.4,0c0.2,0.1,0.4,0.1,0.6,0.2c-0.2,0.9-0.3,1.9-0.4,3.1
				c-0.1,1.1-0.1,2.3-0.1,3.3c0,0.7,0,1.9,0.1,3.6c0,1.7,0.1,2.5,0.1,2.6c0.1,0.2,0.1,0.4,0.2,0.6c0.1,0.2,0.2,0.3,0.4,0.3
				c1,0,2-0.1,2.9-0.2c0.9-0.1,2-0.3,3.2-0.5C125.7,205.1,125.7,205.1,125.7,205.2z"/>
			<path class="st2" d="M145.9,195.1c0.3,0.6,0.5,1.2,0.7,1.8c0.2,0.7,0.2,1.4,0.2,2c0,0.9-0.1,1.8-0.4,2.7
				c-0.3,0.9-0.8,1.8-1.5,2.8c-0.7,1-1.8,1.8-3.2,2.4c-1.4,0.6-3,0.9-4.7,0.9c-1,0.2-1.9,0.3-2.8,0.3c-1.1,0-2-0.2-2.9-0.5
				c-0.9-0.3-1.7-0.8-2.3-1.6c-0.6-0.7-1.1-1.6-1.5-2.5c-0.4-1-0.5-2-0.5-3c0-1,0.2-2.1,0.6-3.2c0.4-1.1,1.2-2.2,2.5-3.2
				c1.3-1,2.6-1.7,4.1-1.9c1-0.1,1.7-0.2,2.2-0.3c0.5-0.1,0.9-0.2,1.3-0.3c0.4-0.1,0.7-0.2,1-0.2c0.3,0,0.6,0,0.9,0
				c1.3,0,2.6,0.3,3.7,1C144.5,193.1,145.3,194,145.9,195.1z M142,196.2c-0.6-0.9-1.1-1.6-1.8-2s-1.2-0.6-1.9-0.8
				c-0.6-0.2-1.1-0.2-1.5-0.2c-0.6,0-1.2,0.1-1.8,0.4c-0.6,0.3-1.2,0.7-1.9,1.3c-0.7,0.7-1.3,1.5-1.7,2.5c-0.4,0.9-0.6,1.9-0.6,2.9
				c0,0.9,0.2,1.8,0.6,2.7c0.4,1,1.1,1.8,2.1,2.4s2.1,1,3.3,1c2-0.3,3.5-1.1,4.5-2.5c1-1.4,1.5-2.9,1.5-4.4
				C142.9,198.2,142.6,197.1,142,196.2z"/>
			<path class="st2" d="M164.7,194.8c0.7,1.3,1,2.7,1,4.3c0,1.2-0.2,2.3-0.6,3.5c-0.4,1.1-1,2.1-1.8,2.9c-0.7,0.8-1.5,1.4-2.5,1.7
				c-0.9,0.4-1.9,0.6-2.8,0.7c-1,0.1-2.2,0.1-3.8,0.1c-0.7,0-1.7,0-3-0.1c-1.3-0.1-2.2-0.1-2.6-0.1c0.1-0.3,0.2-0.6,0.5-1.1
				c0.2-0.5,0.4-1,0.4-1.5c0.1-0.5,0.1-1.2,0.2-2.2s0.1-2.1,0.1-3.5v-0.5v-0.4V198v-0.3v-0.3c0-0.3,0-0.6,0-0.9c0-0.3,0-0.6,0-0.9
				v-0.2c0-1.2-0.2-2.3-0.7-3.3c0-0.2,0-0.3,0.1-0.3c0.9,0,1.9,0,2.8,0c0.9,0,1.9,0,2.8,0.1h0.5c1.2,0,2.3-0.1,3.3-0.2h1
				c1.3,0,2.3,0.2,3.1,0.5C163.3,192.6,164,193.5,164.7,194.8z M161.5,196.8c-0.4-1.2-1-2-1.7-2.4c-0.7-0.5-1.4-0.8-2-0.9
				c-0.6-0.1-1-0.2-1.2-0.2c-0.4,0-0.8,0.1-1.3,0.4s-0.9,0.4-1.2,0.5c-0.3,0.1-0.5,0.4-0.5,1c-0.1,0.6-0.2,1.1-0.2,1.6
				c0,0.9,0,2.1-0.1,3.7s-0.1,2.5-0.1,2.6c0,0.4,0,0.8,0,1.2c0,0.4,0.1,0.8,0.1,1.2c0.1,0.2,0.2,0.3,0.3,0.4
				c0.1,0.1,0.4,0.3,0.7,0.4c0.4,0.2,0.8,0.2,1.4,0.2c0.8,0,1.6-0.2,2.3-0.6c0.8-0.4,1.5-1,2.2-1.7c0.6-0.7,1-1.5,1.4-2.3
				c0.3-0.9,0.5-1.7,0.5-2.7c0-0.4,0-0.8-0.1-1.2C161.7,197.6,161.6,197.2,161.5,196.8z"/>
			<path class="st2" d="M186.9,195c-0.1,0.1-0.1,0.1-0.1,0.2c-0.9,0.1-1.7,0.2-2.4,0.2c-0.7,0.1-1.2,0.1-1.7,0.1
				c-0.2-0.4-0.5-0.8-0.9-1.2c-0.4-0.4-0.8-0.6-1.2-0.6c-0.4-0.1-0.9-0.2-1.4-0.3c-0.5-0.1-0.9-0.1-1.4-0.1c-0.7,0-1.3,0.1-1.8,0.4
				c-1,0.3-1.9,0.9-2.7,1.7c-0.9,0.8-1.4,1.7-1.6,2.5c-0.2,0.8-0.3,1.6-0.3,2.2c0,1.1,0.2,2.1,0.7,3c0.4,0.9,1.1,1.7,2,2.3
				c0.5,0.3,1.1,0.5,1.6,0.8c0.6,0.3,1.2,0.4,1.8,0.4c0.2,0,0.3,0,0.5,0c0.2,0,0.5-0.1,1-0.2s1.1-0.4,1.7-0.8s1.1-1,1.3-1.8
				c0.1-0.3,0.2-0.6,0.2-0.9c0-0.3,0.1-0.7,0.1-1.1c0-0.2,0-0.5,0-0.9c0-0.4,0-0.7,0-0.8c0.2,0,0.6-0.1,1-0.1s0.8,0,1.1,0h1.6
				c0,0,0,0,0.1,0c0,0,0.1,0,0.1,0c0,0.5-0.1,1.3-0.3,2.4s-0.3,1.8-0.3,2.2s0,0.8,0.1,1.2c0.1,0.3,0.2,0.6,0.3,0.8
				c0.1,0.2,0.2,0.5,0.4,0.7s0.2,0.4,0.3,0.6c-0.1,0-0.1,0-0.2,0c0,0,0,0,0,0c-1-0.2-2.1-0.3-3.2-0.3c-0.7,0-1.7,0-3.2,0.1
				c-1.5,0.1-2.4,0.1-2.9,0.1c-0.7,0.1-1.3,0.2-2,0.2c-1.2,0-2.4-0.2-3.6-0.7c-1.2-0.4-2.1-1.3-2.8-2.7s-1-2.8-1-4.4
				c0-1.7,0.4-3.2,1.2-4.5c0.8-1.4,2-2.3,3.4-2.9c0.8-0.4,1.6-0.6,2.4-0.7c0.9-0.1,1.8-0.2,2.9-0.2c1.1-0.2,2.2-0.4,3.3-0.4
				c1.1,0,2.1,0.1,2.9,0.3c0.8,0.2,1.4,0.5,1.7,0.9c0.3,0.4,0.6,0.8,0.9,1.1C186.7,194.3,186.8,194.7,186.9,195z"/>
			<path class="st2" d="M199.6,192c-0.1,0.3-0.2,0.7-0.4,1.2c-0.1,0.6-0.2,0.9-0.3,1c-0.1,0-0.2,0.1-0.2,0.1c-0.6,0-1.7,0-3.1,0
				s-2.2-0.1-2.3-0.1c-0.1,0.1-0.2,0.2-0.3,0.3c0,0.2-0.1,0.5-0.1,0.8s0,0.6,0,0.9c0,0.3,0,0.6,0,1.1c0,0.5,0,0.9,0,1.1
				c0,0.1,0.1,0.1,0.2,0.2c0.4,0.1,0.8,0.1,1.1,0.1c0.3,0,0.8,0,1.2,0c0.7,0,1.3,0,1.9-0.1c0.6,0,1.2-0.1,2-0.2c0,0.4,0,0.8-0.1,1.4
				c-0.1,0.6-0.1,1-0.1,1.3c-0.1,0-0.2,0.1-0.3,0.1c-0.5,0-1.2,0-2.3-0.1s-1.8-0.1-2.2-0.1c-0.4,0-0.8,0-1.3,0.1
				c-0.2,0.1-0.2,0.2-0.2,0.2c0,0.1,0,0.3,0,0.4c0,0.2,0,0.3,0,0.4c0,0.3,0,0.7,0.1,1.3c0,0.6,0.1,1,0.1,1.3c0,0.3,0.1,0.5,0.3,0.5
				c0.7,0.1,1.5,0.2,2.4,0.2c0.6,0,1.2,0,1.8-0.1s1.1-0.2,1.6-0.4c0.1,0,0.2,0.1,0.2,0.3v0.3c0,0.2,0,0.4,0,0.6s0,0.4,0,0.6v0.4
				c0,0.2,0,0.3,0,0.4c0,0.1,0,0.2,0,0.3c-0.6,0-1.5,0-2.8-0.1s-2.2-0.1-2.9-0.1h-4.5c0,0-0.1,0-0.1,0c0.2-1.2,0.3-2.4,0.4-3.7
				c0.1-1.3,0.1-2.7,0.1-4.3v-0.5v-0.5v-0.4v-0.4v-0.3c0-0.3,0-0.6,0-1s0-0.6,0-1v-0.3c0-0.6-0.1-1.3-0.2-2
				c-0.1-0.7-0.2-1.2-0.3-1.7l0.1-0.1c0.7,0,1.8,0,3.4,0.1c1.6,0.1,2.7,0.1,3.2,0.1c0.8,0,1.5,0,2-0.1s0.9-0.1,1.3-0.2
				c0.4-0.1,0.6-0.1,0.8-0.2c0.1,0,0.1,0,0.1,0.1C199.7,191.6,199.6,191.8,199.6,192z"/>
		</g>
		<g>
			<polyline class="st2" points="182.2,151.3 187.3,143.6 193.9,143.6 			"/>
		</g>
	</g>
</g>
</svg>
